# xmcd CD database file
#
# Track frame offsets:
#	150
#	33422
#	64610
#	87310
#	103442
#	134905
#
# Disc length: 2392 seconds
#
# Revision: 3
# Processed by: cddbd v1.4PL0 Copyright (c) Steve Scherf et al.
# Submitted via: CDex 1.50beta10
#
DISCID=57095606
DTITLE=Dave Brubeck - Jazz Impressions of Eurasia
DYEAR=1958
DGENRE=Jazz
TTITLE0=Nomad
TTITLE1=Brandenburg Gate
TTITLE2=The Golden Horn
TTITLE3=Thank You (Dziekuje)
TTITLE4=Marble Arch
TTITLE5=Calcutta Blues
EXTD=YEAR: 1958
EXTT0=
EXTT1=
EXTT2=
EXTT3=
EXTT4=
EXTT5=
PLAYORDER=
